<?xml version="1.0" encoding="UTF-8"?>
<svg id="Warstwa_1" xmlns="http://www.w3.org/2000/svg" version="1.1" viewBox="0 0 500 500">
  <!-- Generator: Adobe Illustrator 29.1.0, SVG Export Plug-In . SVG Version: 2.1.0 Build 142)  -->
  <defs>
    <style>
      .st0 {
        stroke-width: 22.2px;
      }

      .st0, .st1 {
        fill: none;
        stroke: #fff;
        stroke-miterlimit: 10;
      }

      .st1 {
        stroke-width: 16.2px;
      }

      .st2 {
        fill: #5560a9;
      }
    </style>
  </defs>
  <rect class="st2" y="0" width="500" height="500" rx="100" ry="100"/>
  <g>
    <path class="st1" d="M233.9,239.9c-77.6-69.7,8.7-139.4,16.2-139.4s92.6,70.9,15.8,139.4"/>
    <path class="st1" d="M271.3,243.3c39-96.7,134-39.5,136.5-32.4,2.6,7.1-34.9,111.2-125.6,62.5"/>
    <path class="st1" d="M217.6,273.2c-92,49.1-128-55.9-125.4-62.9s98.2-62.7,136.4,32.9"/>
    <path class="st1" d="M248.3,300.9c14.6,103.3-96.3,101.2-102,96.3s-25.3-113.8,77.5-116.9"/>
    <path class="st1" d="M276.3,280.7c104.2,3.5,82.9,112.4,77.2,117.2-5.8,4.8-116.5,5.2-101.7-96.7"/>
    <path class="st0" d="M251.2,206.2l13.8,27.9c.7,1.4,2,2.4,3.6,2.6l30.8,4.5c3.9.6,5.5,5.4,2.6,8.1l-22.3,21.7c-1.1,1.1-1.6,2.7-1.4,4.2l5.3,30.7c.7,3.9-3.4,6.9-6.9,5l-27.5-14.5c-1.4-.7-3-.7-4.4,0l-27.5,14.5c-3.5,1.8-7.6-1.1-6.9-5l5.3-30.7c.3-1.5-.2-3.1-1.4-4.2l-22.3-21.7c-2.8-2.8-1.3-7.6,2.6-8.1l30.8-4.5c1.6-.2,2.9-1.2,3.6-2.6l13.8-27.9c1.7-3.5,6.8-3.5,8.5,0Z"/>
  </g>
</svg>